<?xml version="1.0" encoding="utf-8"?>
<!-- Generator: Adobe Illustrator 23.1.0, SVG Export Plug-In . SVG Version: 6.00 Build 0)  -->
<svg version="1.1" id="Layer_1" xmlns="http://www.w3.org/2000/svg" xmlns:xlink="http://www.w3.org/1999/xlink" x="0px" y="0px"
	 viewBox="0 0 71.5 71" style="enable-background:new 0 0 71.5 71;" xml:space="preserve">
<style type="text/css">
	.st0{fill:none;stroke:#000000;stroke-width:5;stroke-linecap:round;stroke-linejoin:round;}
</style>
<polyline class="st0" points="33.5,4.5 2.5,4.5 2.5,68.5 66.5,68.5 66.5,39.5 "/>
<path d="M69,12.5H59v-10C59,1.12,57.88,0,56.5,0S54,1.12,54,2.5v10H44c-1.38,0-2.5,1.12-2.5,2.5s1.12,2.5,2.5,2.5h10v10
	c0,1.38,1.12,2.5,2.5,2.5s2.5-1.12,2.5-2.5v-10h10c1.38,0,2.5-1.12,2.5-2.5S70.38,12.5,69,12.5z"/>
<rect x="15.5" y="36" width="5.5" height="21.5"/>
<rect x="41.5" y="43" width="5.5" height="14.5"/>
<rect x="28.5" y="25" width="5.5" height="32.5"/>
</svg>
