<?xml version="1.0" encoding="utf-8"?>
<!-- Generator: Adobe Illustrator 23.1.0, SVG Export Plug-In . SVG Version: 6.00 Build 0)  -->
<svg version="1.1" id="Layer_1" xmlns="http://www.w3.org/2000/svg" xmlns:xlink="http://www.w3.org/1999/xlink" x="0px" y="0px"
	 viewBox="0 0 360 360" style="enable-background:new 0 0 360 360;" xml:space="preserve">
<style type="text/css">
	.st0{fill-rule:evenodd;clip-rule:evenodd;fill:none;stroke:#000000;stroke-miterlimit:10;}
	.st1{fill:none;stroke:#000000;stroke-miterlimit:10;}
</style>
<polygon class="st0" points="57.5,34.16 66.42,52.23 86.35,55.13 71.93,69.19 75.33,89.04 57.5,79.67 39.67,89.04 43.07,69.19 
	28.65,55.13 48.58,52.23 "/>
<rect x="121.5" y="31.5" class="st0" width="53" height="53"/>
<circle class="st0" cx="234" cy="62" r="27.5"/>
<line class="st1" x1="35.5" y1="141.5" x2="98.5" y2="141.5"/>
<path class="st1" d="M165.5,153.5c0,0-22,47,11,42s58-42,58-42s28-36-89,39s46-17,46-17s23-17-4,39s45-23,45-23s17-21,26,23
	s39-14,39-14"/>
</svg>
